<?xml version="1.0" encoding="UTF-8" standalone="no"?>
<!-- Created with Inkscape (http://www.inkscape.org/) -->

<svg
   width="210mm"
   height="297mm"
   viewBox="0 0 210 297"
   version="1.1"
   id="svg5"
   xml:space="preserve"
   inkscape:version="1.3.1 (91b66b0783, 2023-11-16)"
   sodipodi:docname="rysunek.svg"
   xmlns:inkscape="http://www.inkscape.org/namespaces/inkscape"
   xmlns:sodipodi="http://sodipodi.sourceforge.net/DTD/sodipodi-0.dtd"
   xmlns:xlink="http://www.w3.org/1999/xlink"
   xmlns="http://www.w3.org/2000/svg"
   xmlns:svg="http://www.w3.org/2000/svg"><sodipodi:namedview
     id="namedview7"
     pagecolor="#ffffff"
     bordercolor="#000000"
     borderopacity="0.25"
     inkscape:showpageshadow="2"
     inkscape:pageopacity="0.0"
     inkscape:pagecheckerboard="0"
     inkscape:deskcolor="#d1d1d1"
     inkscape:document-units="mm"
     showgrid="false"
     inkscape:zoom="0.70710678"
     inkscape:cx="147.07821"
     inkscape:cy="555.07882"
     inkscape:window-width="2560"
     inkscape:window-height="1009"
     inkscape:window-x="-8"
     inkscape:window-y="-8"
     inkscape:window-maximized="1"
     inkscape:current-layer="layer1" /><defs
     id="defs2"><rect
       x="-87.172974"
       y="122.04216"
       width="709.4539"
       height="115.33655"
       id="rect7257" /><rect
       x="930.73914"
       y="-329.91618"
       width="445.25273"
       height="270.90678"
       id="rect5284" /><rect
       x="128.74778"
       y="213.23851"
       width="285.65913"
       height="79.126238"
       id="rect5054" /><rect
       x="100.5842"
       y="344.66853"
       width="645.08001"
       height="144.84125"
       id="rect4988" /><rect
       x="85.348525"
       y="229.96686"
       width="206.25894"
       height="74.44288"
       id="rect1039" /><rect
       x="288.76251"
       y="212.89715"
       width="307.72885"
       height="33.665252"
       id="rect1033" /><rect
       x="255.57142"
       y="179.2319"
       width="151.25655"
       height="19.914656"
       id="rect1027" /><rect
       x="269.32201"
       y="187.76675"
       width="79.184465"
       height="36.510202"
       id="rect1021" /><rect
       x="269.56566"
       y="119.35992"
       width="175.68707"
       height="108.63094"
       id="rect1007" /></defs><g
     inkscape:label="Warstwa 1"
     inkscape:groupmode="layer"
     id="layer1"><text
       xml:space="preserve"
       transform="scale(0.26458333)"
       id="text1005"
       style="letter-spacing:0.15px;white-space:pre;shape-inside:url(#rect1007);display:inline;fill:#000000;fill-opacity:0;stroke:#000000;stroke-width:4.40315;stroke-dasharray:none;stroke-opacity:1" /><text
       xml:space="preserve"
       transform="scale(0.26458333)"
       id="text1019"
       style="font-style:normal;font-variant:normal;font-weight:normal;font-stretch:normal;font-family:Bahnschrift;-inkscape-font-specification:Bahnschrift;white-space:pre;shape-inside:url(#rect1021);display:inline;fill:#000000;fill-opacity:0;stroke:#000000;stroke-width:4.40315;stroke-dasharray:none;stroke-opacity:1" /><text
       xml:space="preserve"
       transform="scale(0.26458333)"
       id="text5052"
       style="font-style:normal;font-variant:normal;font-weight:normal;font-stretch:normal;font-size:64px;font-family:'Bodoni MT';-inkscape-font-specification:'Bodoni MT';text-align:center;white-space:pre;shape-inside:url(#rect5054);display:inline;fill:none;fill-opacity:1;stroke:#000000;stroke-width:4.91339;stroke-dasharray:none;stroke-dashoffset:0;stroke-opacity:1" /><text
       xml:space="preserve"
       transform="scale(0.26458333)"
       id="text5282"
       style="font-style:normal;font-variant:normal;font-weight:normal;font-stretch:normal;font-size:64px;font-family:'Bodoni MT';-inkscape-font-specification:'Bodoni MT';text-align:center;white-space:pre;shape-inside:url(#rect5284);display:inline;fill:none;fill-opacity:1;stroke:#000000;stroke-width:4.91339;stroke-dasharray:none;stroke-dashoffset:0;stroke-opacity:1" /><path
       style="fill:none;fill-opacity:1;stroke:#6A8D73;stroke-width:1.3;stroke-dasharray:none;stroke-dashoffset:0;stroke-opacity:1"
       id="path7251"
       sodipodi:type="arc"
       sodipodi:cx="108.22581"
       sodipodi:cy="140.87097"
       sodipodi:rx="72.032257"
       sodipodi:ry="72.032257"
       sodipodi:start="0"
       sodipodi:end="6.2809615"
       sodipodi:open="true"
       sodipodi:arc-type="arc"
       inkscape:export-filename="Logo.png"
       inkscape:export-xdpi="96"
       inkscape:export-ydpi="96" /><path
       style="fill:none;fill-opacity:1;stroke:none;stroke-width:1.3;stroke-dasharray:none;stroke-dashoffset:0;stroke-opacity:1"
       id="path7253"
       sodipodi:type="arc"
       sodipodi:cx="124.4234"
       sodipodi:cy="-125.05723"
       sodipodi:rx="55.709675"
       sodipodi:ry="55.709675"
       sodipodi:start="0"
       sodipodi:end="6.2809615"
       sodipodi:open="true"
       sodipodi:arc-type="arc"
       transform="rotate(97.421285)" /><text
       xml:space="preserve"
       transform="scale(0.26458333)"
       id="text7255"
       style="font-style:normal;font-variant:normal;font-weight:normal;font-stretch:normal;font-size:64px;font-family:'Bodoni MT';-inkscape-font-specification:'Bodoni MT';text-align:center;white-space:pre;shape-inside:url(#rect7257);display:inline;fill:none;fill-opacity:1;stroke:#000000;stroke-width:4.91339;stroke-dasharray:none;stroke-dashoffset:0;stroke-opacity:1" /><text
       xml:space="preserve"
       style="font-style:normal;font-variant:normal;font-weight:normal;font-stretch:normal;font-size:16.9333px;font-family:'Bodoni MT';-inkscape-font-specification:'Bodoni MT';text-align:center;text-anchor:middle;fill:#6A8D73;fill-opacity:1;stroke:none;stroke-width:1.3;stroke-dasharray:none;stroke-dashoffset:0;stroke-opacity:1"
       id="text7263"><textPath
         xlink:href="#path7253"
         startOffset="50%"
         id="textPath7317"><tspan
           id="tspan7261"
           style="fill:#6A8D73;fill-opacity:1;stroke:none;stroke-width:1.3">M CARS TUNE</tspan></textPath></text><g
       id="g9402"
       transform="translate(-1.8708867)"
       style="fill:#6A8D73;fill-opacity:1"><path
         id="path13931"
         style="fill:#6A8D73;fill-opacity:1;stroke:none;stroke-width:1.42794;stroke-dasharray:none;stroke-dashoffset:0;stroke-opacity:1"
         d="m 129.70836,103.68928 -2.08566,1.89962 26.22579,28.79411 2.08618,-1.90014 z m -2.86029,2.60501 -1.16168,1.05781 26.2263,28.79411 1.16169,-1.05781 z m -1.93528,1.76268 -15.48639,14.1056 1.39836,1.53531 a 21.553222,15.74952 47.672251 0 1 9.32191,3.4618 l -10.26707,9.35137 12.28969,11.47682 8.91573,-8.12096 a 21.553222,15.74952 47.672251 0 1 1.90583,8.16746 l 2.66134,2.92231 15.48639,-14.1056 z m 5.93452,15.43627 a 4.6771147,4.7131097 47.672251 0 1 3.78323,1.45572 4.6771147,4.7131097 47.672251 0 1 -0.22427,6.61975 l -0.0656,0.0605 a 4.6771147,4.7131097 47.672251 0 1 -6.61924,-0.26768 4.6771147,4.7131097 47.672251 0 1 0.28732,-6.61717 4.6771147,4.7131097 47.672251 0 1 2.83859,-1.25108 z m -22.07772,14.0286 -2.67426,2.43603 a 8.974337,20.494902 59.565725 0 0 -5.73091,2.74815 8.974337,20.494902 59.565725 0 0 -0.742077,0.44648 l 15.034227,14.00638 a 8.974337,20.494902 35.778777 0 0 0.23616,-0.33331 8.974337,20.494902 35.778777 0 0 3.02204,-4.963 l 3.14451,-2.86391 z m -10.728029,6.61148 a 8.974337,20.494902 59.565725 0 0 -6.101436,4.78679 14.227889,7.5981823 49.219608 0 0 -4.246253,0.31729 l -3.887101,-4.26744 -19.017961,17.32143 3.828707,4.20387 a 14.226223,6.0412734 47.672251 0 0 1.658297,6.87607 14.226223,6.0412734 47.672251 0 0 9.595797,10.69909 14.226223,6.0412734 47.672251 0 0 7.071919,2.54506 l 3.82819,4.20336 19.01796,-17.32194 -3.26957,-3.58944 a 14.227889,7.5981823 49.219608 0 0 0.4191,-4.45864 8.974337,20.494902 35.778777 0 0 6.63939,-6.84093 z m -11.07426,12.71034 a 11.184404,10.718388 47.672251 0 1 8.428943,3.74447 11.184404,10.718388 47.672251 0 1 -0.362768,15.48381 l -0.01757,0.016 a 11.184404,10.718388 47.672251 0 1 -15.451253,-1.04645 11.184404,10.718388 47.672251 0 1 0.379821,-15.48277 11.184404,10.718388 47.672251 0 1 7.022827,-2.71508 z" /><path
         id="rect739"
         style="fill:#6A8D73;stroke-width:1.22006;fill-opacity:1"
         d="m 76.648636,104.97659 8.858328,8.2496 -0.04415,0.0384 0.06313,0.0193 -2.088152,7.53461 -0.08719,-0.0264 0.0059,0.0171 -8.508891,1.65541 -0.0054,0.004 -0.0032,-0.003 -8.549492,-7.96198 c -2.474107,6.11584 -0.852495,13.42913 4.795692,18.59582 5.504206,5.02792 13.096844,3.51529 20.68118,4.58842 4.867206,0.72702 52.158919,48.57469 52.158919,48.57469 2.71549,2.5289 6.88693,2.84416 9.35299,0.70689 l 0.92736,-0.80374 c 2.46602,-2.13727 2.26523,-5.89384 -0.45026,-8.42273 0,0 -51.96097,-44.32818 -51.79018,-48.23126 -0.86718,-8.55443 1.93163,-14.53396 -3.932105,-20.00218 l -0.263574,-0.24078 c -5.836697,-5.24442 -14.20756,-6.70832 -21.120659,-4.29307 z m 69.404264,74.50634 a 4.1543733,3.7305644 3.8676406 0 1 5.85858,0.0454 l 0.0553,0.0509 a 4.1543733,3.7305644 3.8676406 0 1 -0.0487,5.26476 4.1543733,3.7305644 3.8676406 0 1 -5.85872,-0.0951 4.1543733,3.7305644 3.8676406 0 1 -0.007,-5.26602 z" /></g></g></svg>
